<svg width="50" height="50" viewBox="0 0 50 50" fill="none" xmlns="http://www.w3.org/2000/svg">
<mask id="path-1-outside-1_432_739" maskUnits="userSpaceOnUse" x="10" y="10" width="29" height="30" fill="black">
<rect fill="white" x="10" y="10" width="29" height="30"/>
<path d="M37.2147 28.4196C36.3233 27.9001 35.2428 27.9482 34.2503 28.5512L30.648 30.7397C30.5651 30.2762 30.3413 29.8495 30.007 29.5178C29.0324 28.5633 27.315 28.6044 25.9351 28.6377C25.6682 28.6441 25.4143 28.6504 25.1876 28.6483L20.2124 26.4934C19.6432 26.247 18.523 26.2417 17.226 26.2599C17.1101 26.2615 17.0018 26.263 16.9029 26.2639C16.7317 25.9645 16.4844 25.7156 16.1861 25.5423C15.8878 25.3691 15.5491 25.2778 15.2041 25.2775H12.9579C12.4388 25.2781 11.9412 25.4846 11.5741 25.8516C11.2071 26.2187 11.0006 26.7163 11 27.2354V36.3296C11.0006 36.8487 11.207 37.3463 11.5741 37.7134C11.9411 38.0804 12.4388 38.2869 12.9579 38.2875H15.204C15.505 38.2875 15.802 38.218 16.0717 38.0844C16.3415 37.9508 16.5768 37.7567 16.7592 37.5172C17.0143 37.5126 17.2723 37.505 17.5239 37.4976C18.6229 37.4651 19.7593 37.4314 20.7653 37.6426L27.1801 38.9892C27.3035 39.0151 27.4322 38.994 27.5409 38.93L37.0597 33.3225C38.0344 32.8256 38.6102 31.9735 38.6403 30.9822C38.6516 30.467 38.5254 29.958 38.2749 29.5076C38.0243 29.0573 37.6584 28.6817 37.2147 28.4196ZM16.1498 36.3296C16.1495 36.5803 16.0498 36.8208 15.8725 36.9981C15.6952 37.1754 15.4547 37.2752 15.204 37.2755H12.9579C12.7071 37.2752 12.4667 37.1754 12.2894 36.9981C12.112 36.8208 12.0123 36.5803 12.012 36.3296V27.2354C12.0123 26.9846 12.112 26.7442 12.2894 26.5669C12.4667 26.3896 12.7071 26.2898 12.9579 26.2896H15.204C15.4547 26.2898 15.6952 26.3896 15.8725 26.5669C16.0498 26.7442 16.1495 26.9846 16.1498 27.2354V36.3296ZM36.5892 32.4263C36.5793 32.4314 36.5696 32.4367 36.56 32.4422L27.1964 37.9583L20.9734 36.6519C19.8498 36.4158 18.6523 36.4515 17.4942 36.4857C17.3788 36.4892 17.2661 36.4924 17.1543 36.4955C17.159 36.4407 17.1619 36.3855 17.1619 36.3296V27.2729L17.2399 27.2718C17.9926 27.2616 19.3938 27.2418 19.81 27.4221L24.878 29.6171C24.9383 29.6433 25.0031 29.6574 25.0688 29.6587C25.3417 29.6643 25.6417 29.6571 25.9592 29.6494C27.1489 29.6208 28.6294 29.5853 29.2989 30.2409C29.5676 30.504 29.6974 30.8779 29.6957 31.3855C29.6957 31.6472 29.6096 31.7615 29.5447 31.8247C29.347 32.0173 28.9042 32.1144 28.2976 32.0984C28.2932 32.0984 28.2888 32.0984 28.2843 32.0984H25.236C25.1018 32.0984 24.9731 32.1518 24.8782 32.2467C24.7833 32.3415 24.73 32.4703 24.73 32.6045C24.73 32.7387 24.7833 32.8674 24.8782 32.9623C24.9731 33.0572 25.1018 33.1105 25.236 33.1105H28.2778C28.3293 33.1118 28.3798 33.1124 28.4296 33.1124C29.2661 33.1124 29.8633 32.9278 30.251 32.5498C30.426 32.3801 30.5557 32.1691 30.628 31.9363L34.776 29.4163C35.4513 29.0058 36.1367 28.9626 36.7054 29.2941C36.9908 29.4655 37.2262 29.7087 37.3883 29.9994C37.5503 30.2902 37.6333 30.6184 37.6289 30.9512C37.6101 31.5741 37.2409 32.0979 36.5892 32.4263ZM21.4524 22.5854L27.5961 26.1325C27.673 26.1769 27.7602 26.2003 27.8491 26.2003C27.9379 26.2003 28.0251 26.1769 28.1021 26.1325L34.2458 22.5854C34.3227 22.541 34.3866 22.4771 34.431 22.4002C34.4754 22.3232 34.4988 22.236 34.4988 22.1472V15.053C34.4988 15.0515 34.4988 15.0501 34.4988 15.0485C34.4987 15.0279 34.4973 15.0072 34.4947 14.9867C34.4947 14.9853 34.4941 14.9839 34.4939 14.9824C34.4913 14.964 34.4876 14.9457 34.4829 14.9277C34.4816 14.9225 34.4801 14.9175 34.4787 14.9125C34.4744 14.8977 34.4694 14.8832 34.4638 14.8687C34.4618 14.8638 34.46 14.8588 34.4581 14.8538C34.4504 14.8355 34.4415 14.8175 34.4317 14.8002L34.4313 14.7996C34.4212 14.7824 34.4101 14.7657 34.398 14.7498C34.3949 14.7455 34.3915 14.7416 34.3882 14.7375C34.3784 14.7253 34.3683 14.7136 34.3576 14.7024C34.354 14.6987 34.3505 14.695 34.3468 14.6912C34.3333 14.678 34.3192 14.6655 34.3044 14.6538L34.3015 14.6514C34.285 14.6389 34.2678 14.6274 34.2499 14.6169C34.2487 14.6162 34.2476 14.6152 34.2463 14.6144L28.1021 11.0678C28.0251 11.0234 27.9379 11 27.8491 11C27.7602 11 27.673 11.0234 27.5961 11.0678L21.4524 14.6148C21.3755 14.6592 21.3116 14.7231 21.2672 14.8C21.2228 14.877 21.1994 14.9642 21.1994 15.053V22.1472C21.1994 22.236 21.2228 22.3232 21.2672 22.4002C21.3116 22.4771 21.3755 22.541 21.4524 22.5854ZM33.4867 21.855L28.3551 24.8178V18.8923L33.4867 15.9292V21.855ZM27.8491 12.0903L32.9807 15.0533L27.8491 18.0164L22.7175 15.0536L27.8491 12.0903ZM22.2114 15.9295L27.343 18.8926V24.818L22.2114 21.8553V15.9295Z"/>
</mask>
<path d="M37.2147 28.4196C36.3233 27.9001 35.2428 27.9482 34.2503 28.5512L30.648 30.7397C30.5651 30.2762 30.3413 29.8495 30.007 29.5178C29.0324 28.5633 27.315 28.6044 25.9351 28.6377C25.6682 28.6441 25.4143 28.6504 25.1876 28.6483L20.2124 26.4934C19.6432 26.247 18.523 26.2417 17.226 26.2599C17.1101 26.2615 17.0018 26.263 16.9029 26.2639C16.7317 25.9645 16.4844 25.7156 16.1861 25.5423C15.8878 25.3691 15.5491 25.2778 15.2041 25.2775H12.9579C12.4388 25.2781 11.9412 25.4846 11.5741 25.8516C11.2071 26.2187 11.0006 26.7163 11 27.2354V36.3296C11.0006 36.8487 11.207 37.3463 11.5741 37.7134C11.9411 38.0804 12.4388 38.2869 12.9579 38.2875H15.204C15.505 38.2875 15.802 38.218 16.0717 38.0844C16.3415 37.9508 16.5768 37.7567 16.7592 37.5172C17.0143 37.5126 17.2723 37.505 17.5239 37.4976C18.6229 37.4651 19.7593 37.4314 20.7653 37.6426L27.1801 38.9892C27.3035 39.0151 27.4322 38.994 27.5409 38.93L37.0597 33.3225C38.0344 32.8256 38.6102 31.9735 38.6403 30.9822C38.6516 30.467 38.5254 29.958 38.2749 29.5076C38.0243 29.0573 37.6584 28.6817 37.2147 28.4196ZM16.1498 36.3296C16.1495 36.5803 16.0498 36.8208 15.8725 36.9981C15.6952 37.1754 15.4547 37.2752 15.204 37.2755H12.9579C12.7071 37.2752 12.4667 37.1754 12.2894 36.9981C12.112 36.8208 12.0123 36.5803 12.012 36.3296V27.2354C12.0123 26.9846 12.112 26.7442 12.2894 26.5669C12.4667 26.3896 12.7071 26.2898 12.9579 26.2896H15.204C15.4547 26.2898 15.6952 26.3896 15.8725 26.5669C16.0498 26.7442 16.1495 26.9846 16.1498 27.2354V36.3296ZM36.5892 32.4263C36.5793 32.4314 36.5696 32.4367 36.56 32.4422L27.1964 37.9583L20.9734 36.6519C19.8498 36.4158 18.6523 36.4515 17.4942 36.4857C17.3788 36.4892 17.2661 36.4924 17.1543 36.4955C17.159 36.4407 17.1619 36.3855 17.1619 36.3296V27.2729L17.2399 27.2718C17.9926 27.2616 19.3938 27.2418 19.81 27.4221L24.878 29.6171C24.9383 29.6433 25.0031 29.6574 25.0688 29.6587C25.3417 29.6643 25.6417 29.6571 25.9592 29.6494C27.1489 29.6208 28.6294 29.5853 29.2989 30.2409C29.5676 30.504 29.6974 30.8779 29.6957 31.3855C29.6957 31.6472 29.6096 31.7615 29.5447 31.8247C29.347 32.0173 28.9042 32.1144 28.2976 32.0984C28.2932 32.0984 28.2888 32.0984 28.2843 32.0984H25.236C25.1018 32.0984 24.9731 32.1518 24.8782 32.2467C24.7833 32.3415 24.73 32.4703 24.73 32.6045C24.73 32.7387 24.7833 32.8674 24.8782 32.9623C24.9731 33.0572 25.1018 33.1105 25.236 33.1105H28.2778C28.3293 33.1118 28.3798 33.1124 28.4296 33.1124C29.2661 33.1124 29.8633 32.9278 30.251 32.5498C30.426 32.3801 30.5557 32.1691 30.628 31.9363L34.776 29.4163C35.4513 29.0058 36.1367 28.9626 36.7054 29.2941C36.9908 29.4655 37.2262 29.7087 37.3883 29.9994C37.5503 30.2902 37.6333 30.6184 37.6289 30.9512C37.6101 31.5741 37.2409 32.0979 36.5892 32.4263ZM21.4524 22.5854L27.5961 26.1325C27.673 26.1769 27.7602 26.2003 27.8491 26.2003C27.9379 26.2003 28.0251 26.1769 28.1021 26.1325L34.2458 22.5854C34.3227 22.541 34.3866 22.4771 34.431 22.4002C34.4754 22.3232 34.4988 22.236 34.4988 22.1472V15.053C34.4988 15.0515 34.4988 15.0501 34.4988 15.0485C34.4987 15.0279 34.4973 15.0072 34.4947 14.9867C34.4947 14.9853 34.4941 14.9839 34.4939 14.9824C34.4913 14.964 34.4876 14.9457 34.4829 14.9277C34.4816 14.9225 34.4801 14.9175 34.4787 14.9125C34.4744 14.8977 34.4694 14.8832 34.4638 14.8687C34.4618 14.8638 34.46 14.8588 34.4581 14.8538C34.4504 14.8355 34.4415 14.8175 34.4317 14.8002L34.4313 14.7996C34.4212 14.7824 34.4101 14.7657 34.398 14.7498C34.3949 14.7455 34.3915 14.7416 34.3882 14.7375C34.3784 14.7253 34.3683 14.7136 34.3576 14.7024C34.354 14.6987 34.3505 14.695 34.3468 14.6912C34.3333 14.678 34.3192 14.6655 34.3044 14.6538L34.3015 14.6514C34.285 14.6389 34.2678 14.6274 34.2499 14.6169C34.2487 14.6162 34.2476 14.6152 34.2463 14.6144L28.1021 11.0678C28.0251 11.0234 27.9379 11 27.8491 11C27.7602 11 27.673 11.0234 27.5961 11.0678L21.4524 14.6148C21.3755 14.6592 21.3116 14.7231 21.2672 14.8C21.2228 14.877 21.1994 14.9642 21.1994 15.053V22.1472C21.1994 22.236 21.2228 22.3232 21.2672 22.4002C21.3116 22.4771 21.3755 22.541 21.4524 22.5854ZM33.4867 21.855L28.3551 24.8178V18.8923L33.4867 15.9292V21.855ZM27.8491 12.0903L32.9807 15.0533L27.8491 18.0164L22.7175 15.0536L27.8491 12.0903ZM22.2114 15.9295L27.343 18.8926V24.818L22.2114 21.8553V15.9295Z" fill="#2C7961"/>
<path d="M37.2147 28.4196C36.3233 27.9001 35.2428 27.9482 34.2503 28.5512L30.648 30.7397C30.5651 30.2762 30.3413 29.8495 30.007 29.5178C29.0324 28.5633 27.315 28.6044 25.9351 28.6377C25.6682 28.6441 25.4143 28.6504 25.1876 28.6483L20.2124 26.4934C19.6432 26.247 18.523 26.2417 17.226 26.2599C17.1101 26.2615 17.0018 26.263 16.9029 26.2639C16.7317 25.9645 16.4844 25.7156 16.1861 25.5423C15.8878 25.3691 15.5491 25.2778 15.2041 25.2775H12.9579C12.4388 25.2781 11.9412 25.4846 11.5741 25.8516C11.2071 26.2187 11.0006 26.7163 11 27.2354V36.3296C11.0006 36.8487 11.207 37.3463 11.5741 37.7134C11.9411 38.0804 12.4388 38.2869 12.9579 38.2875H15.204C15.505 38.2875 15.802 38.218 16.0717 38.0844C16.3415 37.9508 16.5768 37.7567 16.7592 37.5172C17.0143 37.5126 17.2723 37.505 17.5239 37.4976C18.6229 37.4651 19.7593 37.4314 20.7653 37.6426L27.1801 38.9892C27.3035 39.0151 27.4322 38.994 27.5409 38.93L37.0597 33.3225C38.0344 32.8256 38.6102 31.9735 38.6403 30.9822C38.6516 30.467 38.5254 29.958 38.2749 29.5076C38.0243 29.0573 37.6584 28.6817 37.2147 28.4196ZM16.1498 36.3296C16.1495 36.5803 16.0498 36.8208 15.8725 36.9981C15.6952 37.1754 15.4547 37.2752 15.204 37.2755H12.9579C12.7071 37.2752 12.4667 37.1754 12.2894 36.9981C12.112 36.8208 12.0123 36.5803 12.012 36.3296V27.2354C12.0123 26.9846 12.112 26.7442 12.2894 26.5669C12.4667 26.3896 12.7071 26.2898 12.9579 26.2896H15.204C15.4547 26.2898 15.6952 26.3896 15.8725 26.5669C16.0498 26.7442 16.1495 26.9846 16.1498 27.2354V36.3296ZM36.5892 32.4263C36.5793 32.4314 36.5696 32.4367 36.56 32.4422L27.1964 37.9583L20.9734 36.6519C19.8498 36.4158 18.6523 36.4515 17.4942 36.4857C17.3788 36.4892 17.2661 36.4924 17.1543 36.4955C17.159 36.4407 17.1619 36.3855 17.1619 36.3296V27.2729L17.2399 27.2718C17.9926 27.2616 19.3938 27.2418 19.81 27.4221L24.878 29.6171C24.9383 29.6433 25.0031 29.6574 25.0688 29.6587C25.3417 29.6643 25.6417 29.6571 25.9592 29.6494C27.1489 29.6208 28.6294 29.5853 29.2989 30.2409C29.5676 30.504 29.6974 30.8779 29.6957 31.3855C29.6957 31.6472 29.6096 31.7615 29.5447 31.8247C29.347 32.0173 28.9042 32.1144 28.2976 32.0984C28.2932 32.0984 28.2888 32.0984 28.2843 32.0984H25.236C25.1018 32.0984 24.9731 32.1518 24.8782 32.2467C24.7833 32.3415 24.73 32.4703 24.73 32.6045C24.73 32.7387 24.7833 32.8674 24.8782 32.9623C24.9731 33.0572 25.1018 33.1105 25.236 33.1105H28.2778C28.3293 33.1118 28.3798 33.1124 28.4296 33.1124C29.2661 33.1124 29.8633 32.9278 30.251 32.5498C30.426 32.3801 30.5557 32.1691 30.628 31.9363L34.776 29.4163C35.4513 29.0058 36.1367 28.9626 36.7054 29.2941C36.9908 29.4655 37.2262 29.7087 37.3883 29.9994C37.5503 30.2902 37.6333 30.6184 37.6289 30.9512C37.6101 31.5741 37.2409 32.0979 36.5892 32.4263ZM21.4524 22.5854L27.5961 26.1325C27.673 26.1769 27.7602 26.2003 27.8491 26.2003C27.9379 26.2003 28.0251 26.1769 28.1021 26.1325L34.2458 22.5854C34.3227 22.541 34.3866 22.4771 34.431 22.4002C34.4754 22.3232 34.4988 22.236 34.4988 22.1472V15.053C34.4988 15.0515 34.4988 15.0501 34.4988 15.0485C34.4987 15.0279 34.4973 15.0072 34.4947 14.9867C34.4947 14.9853 34.4941 14.9839 34.4939 14.9824C34.4913 14.964 34.4876 14.9457 34.4829 14.9277C34.4816 14.9225 34.4801 14.9175 34.4787 14.9125C34.4744 14.8977 34.4694 14.8832 34.4638 14.8687C34.4618 14.8638 34.46 14.8588 34.4581 14.8538C34.4504 14.8355 34.4415 14.8175 34.4317 14.8002L34.4313 14.7996C34.4212 14.7824 34.4101 14.7657 34.398 14.7498C34.3949 14.7455 34.3915 14.7416 34.3882 14.7375C34.3784 14.7253 34.3683 14.7136 34.3576 14.7024C34.354 14.6987 34.3505 14.695 34.3468 14.6912C34.3333 14.678 34.3192 14.6655 34.3044 14.6538L34.3015 14.6514C34.285 14.6389 34.2678 14.6274 34.2499 14.6169C34.2487 14.6162 34.2476 14.6152 34.2463 14.6144L28.1021 11.0678C28.0251 11.0234 27.9379 11 27.8491 11C27.7602 11 27.673 11.0234 27.5961 11.0678L21.4524 14.6148C21.3755 14.6592 21.3116 14.7231 21.2672 14.8C21.2228 14.877 21.1994 14.9642 21.1994 15.053V22.1472C21.1994 22.236 21.2228 22.3232 21.2672 22.4002C21.3116 22.4771 21.3755 22.541 21.4524 22.5854ZM33.4867 21.855L28.3551 24.8178V18.8923L33.4867 15.9292V21.855ZM27.8491 12.0903L32.9807 15.0533L27.8491 18.0164L22.7175 15.0536L27.8491 12.0903ZM22.2114 15.9295L27.343 18.8926V24.818L22.2114 21.8553V15.9295Z" stroke="#2C7961" stroke-width="0.4" mask="url(#path-1-outside-1_432_739)"/>
</svg>
