<svg width="50" height="50" viewBox="0 0 50 50" fill="none" xmlns="http://www.w3.org/2000/svg">
<path d="M33.3221 26.2743L31.6725 23.417C32.2617 22.9964 32.6844 22.3885 32.875 21.6771C33.0923 20.8661 32.9821 20.0204 32.5643 19.2969C32.1466 18.5734 31.4694 18.0551 30.6583 17.8377L30.6357 17.9222L30.6583 17.8377C29.947 17.6471 29.2092 17.7092 28.5503 18.0091L26.9006 15.1518C26.5214 14.4949 25.8391 14.1115 25.0831 14.1244L25.083 14.1244C24.3248 14.1383 23.6591 14.5474 23.3041 15.2175L23.3041 15.2175C23.0656 15.6678 22.8418 16.1352 22.606 16.6278C21.6426 18.6402 20.5638 20.8882 18.2377 22.2311L15.2095 23.9795C14.144 24.5946 13.3808 25.5921 13.0605 26.7872L13.0605 26.7873C12.7403 27.9824 12.9025 29.2279 13.5177 30.2934C14.373 31.7748 15.93 32.6035 17.5282 32.6035C18.0833 32.6035 18.6435 32.5034 19.1812 32.2961L21.255 35.888L21.337 35.8407L21.255 35.888C21.7116 36.6789 22.5426 37.1211 23.3955 37.1211C23.8138 37.1211 24.2376 37.0147 24.6251 36.791L24.5751 36.7044L24.6251 36.791C25.194 36.4625 25.6017 35.93 25.7725 35.2924L25.6759 35.2666L25.7725 35.2924C25.9433 34.6549 25.8566 33.9899 25.5281 33.4209L23.4996 29.9074C25.6356 28.929 27.8734 29.0991 29.8953 29.2554C30.4403 29.2975 30.9574 29.3375 31.467 29.3561L31.4671 29.3561C32.2238 29.3832 32.912 29.0119 33.3031 28.3621C33.6941 27.7124 33.7013 26.931 33.3221 26.2743ZM31.3194 20.0157C31.736 20.7371 31.5616 21.6404 30.9476 22.1614L29.2753 19.2649C29.5966 19.15 29.9463 19.1351 30.2862 19.2263C30.7272 19.3444 31.0937 19.6247 31.3194 20.0157L31.3986 19.97L31.3194 20.0157ZM14.4492 27.1593L14.361 27.1357L14.4492 27.1593C14.6702 26.3343 15.1955 25.6476 15.9284 25.2244L18.3344 23.8353L21.5219 29.3495L19.113 30.7404C18.6126 31.0292 18.0661 31.1664 17.5262 31.1663C16.4244 31.1662 15.3517 30.5949 14.7627 29.5747C14.3396 28.8418 14.228 27.9844 14.4492 27.1593ZM22.4999 35.1693L20.4542 31.6259L22.2374 30.5964L24.2831 34.1397C24.4196 34.3761 24.4556 34.653 24.3839 34.9204L24.3813 34.9305C24.3081 35.1934 24.1398 35.4113 23.9064 35.5461C23.4148 35.8299 22.7838 35.6609 22.4999 35.1693ZM32.0773 26.9932C32.1939 27.1951 32.1936 27.4117 32.0768 27.6119L32.0715 27.6208C31.9494 27.8237 31.7567 27.9288 31.5198 27.9196L31.5196 27.9196C31.041 27.9021 30.5413 27.8635 30.0097 27.8224L30.0062 27.8222L30.0001 27.8217C27.7922 27.6511 25.2846 27.4574 22.781 28.6552L19.5652 23.0921C21.8573 21.5211 22.9438 19.2517 23.9004 17.2535L23.9027 17.2486L23.8156 17.2069L23.9027 17.2486C24.1333 16.7669 24.35 16.3142 24.5745 15.8904C24.6852 15.6813 24.8727 15.5661 25.1092 15.5618L25.1094 15.5618L25.1229 15.5617C25.3528 15.5617 25.5395 15.6695 25.6557 15.8707L32.0773 26.9932ZM31.741 13.2595L31.8276 13.3095L31.741 13.2595L30.4632 15.4728C30.2647 15.8166 30.3825 16.2562 30.7263 16.4547C30.8393 16.52 30.963 16.5511 31.0851 16.5511C31.3332 16.5511 31.5749 16.4223 31.7081 16.1916L32.986 13.9783C33.1845 13.6345 33.0667 13.1949 32.7229 12.9964V12.9964C32.3791 12.7979 31.9395 12.9157 31.741 13.2595ZM34.0777 19.2531L34.032 19.1738L34.0778 19.2531L36.3447 17.9443C36.6884 17.7458 36.8062 17.3062 36.6077 16.9624C36.4092 16.6187 35.9696 16.5008 35.6259 16.6994L33.359 18.0082C33.0152 18.2066 32.8974 18.6462 33.0959 18.99L33.0959 18.99C33.2291 19.2207 33.4708 19.3495 33.719 19.3495C33.841 19.3495 33.9647 19.3183 34.0777 19.2531ZM37.3812 23.0286C37.7782 23.0286 38.1 22.7067 38.1 22.3098C38.1 21.9128 37.7782 21.591 37.3812 21.591H34.8254C34.4285 21.591 34.1067 21.9128 34.1067 22.3098C34.1067 22.7068 34.4285 23.0286 34.8254 23.0286H37.3812Z" fill="#2C7961" stroke="#2C7961" stroke-width="0.2"/>
</svg>
