<svg width="50" height="50" viewBox="0 0 50 50" fill="none" xmlns="http://www.w3.org/2000/svg">
<path d="M34.061 14H16.939C15.3184 14 14 15.3185 14 16.9391V34.061C14 35.6815 15.3184 37 16.939 37H34.061C35.6816 37 37 35.6815 37 34.0609V16.9391C37 15.3185 35.6816 14 34.061 14ZM35.6452 34.061C35.6452 34.9346 34.9345 35.6452 34.061 35.6452H16.939C16.0654 35.6452 15.3547 34.9345 15.3547 34.061V31.59L19.8134 27.7963C19.9761 27.6578 20.2135 27.6565 20.3777 27.7929L23.1707 30.1121C23.44 30.3357 23.8353 30.3174 24.0828 30.0696L30.7191 23.4233C30.839 23.3031 30.9789 23.2914 31.0518 23.2951C31.1246 23.2989 31.2628 23.3248 31.3698 23.4567L35.6453 28.7211L35.6452 34.061ZM35.6452 26.5721L32.4214 22.6025C32.1017 22.2088 31.6278 21.9681 31.1213 21.9421C30.6151 21.9165 30.1187 22.1071 29.7604 22.466L23.5608 28.6751L21.2433 26.7507C20.5713 26.1927 19.6008 26.1985 18.9355 26.7646L15.3547 29.8112V16.9391C15.3547 16.0655 16.0654 15.3548 16.939 15.3548H34.061C34.9346 15.3548 35.6452 16.0655 35.6452 16.9391V26.5721Z" fill="#2C7961"/>
<path d="M21.241 16.8291C19.4399 16.8291 17.9746 18.2945 17.9746 20.0955C17.9746 21.8966 19.4399 23.3619 21.241 23.3619C23.0421 23.3619 24.5074 21.8966 24.5074 20.0955C24.5074 18.2944 23.0422 16.8291 21.241 16.8291ZM21.241 22.0072C20.1869 22.0072 19.3293 21.1496 19.3293 20.0955C19.3293 19.0414 20.1869 18.1838 21.241 18.1838C22.2952 18.1838 23.1527 19.0414 23.1527 20.0955C23.1527 21.1496 22.2952 22.0072 21.241 22.0072Z" fill="#2C7961"/>
</svg>
