<svg width="50" height="50" viewBox="0 0 50 50" fill="none" xmlns="http://www.w3.org/2000/svg">
<path fill-rule="evenodd" clip-rule="evenodd" d="M29.9584 35.0799C30.3119 35.0799 30.5984 34.7933 30.5984 34.4399C30.5984 34.0864 30.3119 33.7999 29.9584 33.7999C29.605 33.7999 29.3184 34.0864 29.3184 34.4399C29.3184 34.7933 29.605 35.0799 29.9584 35.0799ZM29.9584 36.9998C31.3722 36.9998 32.5184 35.8537 32.5184 34.4399C32.5184 33.0261 31.3722 31.8799 29.9584 31.8799C28.5446 31.8799 27.3984 33.0261 27.3984 34.4399C27.3984 35.8537 28.5446 36.9998 29.9584 36.9998Z" fill="#2C7961"/>
<path fill-rule="evenodd" clip-rule="evenodd" d="M22.2807 35.0799C22.6342 35.0799 22.9207 34.7933 22.9207 34.4399C22.9207 34.0864 22.6342 33.7999 22.2807 33.7999C21.9272 33.7999 21.6407 34.0864 21.6407 34.4399C21.6407 34.7933 21.9272 35.0799 22.2807 35.0799ZM22.2807 36.9998C23.6945 36.9998 24.8407 35.8537 24.8407 34.4399C24.8407 33.0261 23.6945 31.8799 22.2807 31.8799C20.8669 31.8799 19.7207 33.0261 19.7207 34.4399C19.7207 35.8537 20.8669 36.9998 22.2807 36.9998Z" fill="#2C7961"/>
<path fill-rule="evenodd" clip-rule="evenodd" d="M13.1613 13.4276C13.4554 12.9864 14.0515 12.8672 14.4926 13.1613L15.9876 14.158C16.4651 14.4763 16.8022 14.9658 16.9294 15.5254L19.5633 27.1146C19.7289 27.8431 20.3765 28.36 21.1235 28.36H31.1165C31.8636 28.36 32.5112 27.8431 32.6767 27.1146L34.7131 18.1547C34.9406 17.1535 34.1796 16.2001 33.1528 16.2001H23.24C22.7098 16.2001 22.28 15.7703 22.28 15.2401C22.28 14.7099 22.7098 14.2801 23.24 14.2801H33.1528C35.4117 14.2801 37.0859 16.3775 36.5853 18.5802L34.549 27.5401C34.1847 29.1427 32.76 30.28 31.1165 30.28H21.1235C19.48 30.28 18.0553 29.1427 17.6911 27.5401L15.0572 15.9509C15.039 15.8709 14.9908 15.801 14.9226 15.7555L13.4276 14.7589C12.9864 14.4648 12.8672 13.8687 13.1613 13.4276Z" fill="#2C7961"/>
<path fill-rule="evenodd" clip-rule="evenodd" d="M22.273 22.3191C22.6477 21.944 23.2555 21.9437 23.6306 22.3184L24.7629 23.4495L28.609 19.6034C28.9839 19.2285 29.5917 19.2285 29.9666 19.6034C30.3415 19.9784 30.3415 20.5862 29.9666 20.9611L25.4421 25.4856C25.0673 25.8604 24.4598 25.8606 24.0848 25.486L22.2737 23.6767C21.8986 23.302 21.8983 22.6941 22.273 22.3191Z" fill="#2C7961"/>
</svg>
